<?xml version="1.0" encoding="UTF-8" standalone="no"?>
<svg
   width="24"
   height="24"
   viewBox="0 0 24 24"
   fill="none"
   class="lucide lucide-villager-icon lucide-villager"
   version="1.1"
   id="svg7"
   sodipodi:docname="village.svg"
   inkscape:version="1.4.4 (dcaf3e7, 2026-05-05)"
   xmlns:inkscape="http://www.inkscape.org/namespaces/inkscape"
   xmlns:sodipodi="http://sodipodi.sourceforge.net/DTD/sodipodi-0.dtd"
   xmlns="http://www.w3.org/2000/svg"
   xmlns:svg="http://www.w3.org/2000/svg">
  <defs
     id="defs7" />
  <sodipodi:namedview
     id="namedview7"
     pagecolor="#ffffff"
     bordercolor="#000000"
     borderopacity="0.25"
     inkscape:showpageshadow="2"
     inkscape:pageopacity="0.0"
     inkscape:pagecheckerboard="0"
     inkscape:deskcolor="#d1d1d1"
     inkscape:zoom="36.770833"
     inkscape:cx="5.4662889"
     inkscape:cy="7.1660057"
     inkscape:window-width="3840"
     inkscape:window-height="2036"
     inkscape:window-x="-12"
     inkscape:window-y="-12"
     inkscape:window-maximized="1"
     inkscape:current-layer="svg7" />
  <rect
     x="0"
     y="0"
     width="24"
     height="24"
     rx="2"
     fill="#BD886B"
     id="rect1" />
  <rect
     x="2.9999998"
     y="9"
     width="18"
     height="3"
     rx="0.55122501"
     fill="#332411"
     id="rect2"
     style="stroke-width:0.919004" />
  <g
     id="g7" />
  <g
     id="g8"
     transform="translate(-0.47,-0.44000095)">
    <path
       d="M 4.0509859,12.44 H 6.47 v 3 H 4.0509859 A 0.58098592,0.69327731 0 0 1 3.47,14.746723 V 13.133277 A 0.58098592,0.69327731 0 0 1 4.0509859,12.44 Z"
       fill="#ffffff"
       id="path2"
       style="stroke-width:1.15391" />
    <path
       d="M 6.47,12.44 H 8.8890141 A 0.58098592,0.69327731 0 0 1 9.47,13.133277 v 1.613446 A 0.58098592,0.69327731 0 0 1 8.8890141,15.44 H 6.47 Z"
       fill="#009611"
       id="path3"
       style="stroke-width:1.15391" />
  </g>
  <g
     id="g10"
     transform="translate(0.18,-0.44000095)">
    <g
       id="g9">
      <path
         d="M 15.400986,12.44 H 17.82 v 3 H 15.400986 A 0.58098592,0.69327731 0 0 1 14.82,14.746723 V 13.133277 A 0.58098592,0.69327731 0 0 1 15.400986,12.44 Z"
         fill="#009611"
         id="path4"
         style="stroke-width:1.15391" />
      <path
         d="m 17.82,12.44 h 2.425087 A 0.57491289,0.69327731 0 0 1 20.82,13.133277 v 1.613446 A 0.57491289,0.69327731 0 0 1 20.245087,15.44 H 17.82 Z"
         fill="#ffffff"
         id="path5"
         style="stroke-width:1.14787" />
    </g>
  </g>
  <rect
     x="9"
     y="14.999999"
     width="6"
     height="9"
     rx="0.53054667"
     fill="#905e43"
     id="rect5"
     style="stroke-width:0.975139" />
  <rect
     x="6.0000005"
     y="18"
     width="3"
     height="3"
     rx="0.63953489"
     fill="#774235"
     id="rect6"
     style="stroke-width:1.11221" />
  <rect
     x="15"
     y="18"
     width="3"
     height="3"
     rx="0.65217394"
     fill="#774235"
     id="rect7"
     style="stroke-width:1.12315" />
</svg>
